<?xml version="1.0" encoding="iso-8859-1"?>
<!-- Generator: Adobe Illustrator 19.0.0, SVG Export Plug-In . SVG Version: 6.00 Build 0)  -->
<svg version="1.1" id="Layer_1" xmlns="http://www.w3.org/2000/svg" xmlns:xlink="http://www.w3.org/1999/xlink" x="0px" y="0px"
	 viewBox="0 0 511.987 511.987" style="enable-background:new 0 0 511.987 511.987;" xml:space="preserve">
<g>
	<g>
		<path d="M460.301,407.63l-1.812-0.514c-26.484-7.125-35.437-13.953-47.233-18.438c-8.327-3.172-15.421-6.172-21.483-8.969
			l-34.328-33.969l-0.188-27.029c18.219-24.391,32.188-53.711,36.75-84.67l4.547,6.718c2.031,2.984,5.375,4.688,8.844,4.688
			c1.047,0,2.094-0.156,3.124-0.477c4.484-1.375,7.547-5.507,7.547-10.203V128.059c0-1.328-0.234-32.82-20.343-64.42
			c-11.859-18.64-28.141-33.468-48.406-44.077C322.539,6.578,291.82,0,255.993,0c-35.812,0-66.545,6.578-91.326,19.562
			c-20.249,10.609-36.546,25.437-48.405,44.077c-20.108,31.601-20.343,63.092-20.343,64.42v106.708c0,4.695,3.062,8.835,7.547,10.21
			c4.484,1.367,9.328-0.344,11.968-4.227l4.547-6.718c4.562,30.959,18.531,60.272,36.75,84.678l-0.188,26.811l-34.734,34.375
			c-5.969,2.75-12.937,5.688-21.077,8.781c-11.797,4.484-20.75,11.312-47.233,18.438l-1.828,0.514
			c-24.093,7.969-40.312,30.328-40.312,55.562v48.796h244.634h244.635v-48.796C500.628,437.958,484.41,415.598,460.301,407.63z
			 M134.777,74.303c9.891-15.25,23.483-27.405,40.374-36.14c21.594-11.164,48.796-16.82,80.842-16.82s59.249,5.656,80.842,16.82
			c16.89,8.734,30.468,20.89,40.374,36.14c10.531,16.234,14.734,32.726,16.406,43.085H118.371
			C120.043,107.021,124.246,90.529,134.777,74.303z M117.262,199.956v-61.225h277.463v61.264l-23.875-35.241
			c-2-2.93-5.297-4.68-8.844-4.68H149.918c-3.547,0-6.859,1.758-8.844,4.688L117.262,199.956z M155.231,266.79
			c-1.312-0.156-2.609-0.047-3.844,0.258c-7.594-18.108-11.656-36.647-11.656-54.373c-0.001-2.727,0.062-5.43,0.187-8.11
			l15.656-23.148h200.775l15.719,23.203c0.141,2.664,0.203,5.344,0.203,8.055c0,17.804-4.109,36.429-11.781,54.607
			c-45.998,3.195-99.544-20.647-100.106-20.897c-0.078-0.031-0.141-0.055-0.219-0.078c-0.094-0.047-0.188-0.078-0.281-0.117
			c-0.234-0.094-0.484-0.18-0.719-0.258c-0.062-0.016-0.109-0.031-0.156-0.047c-0.297-0.086-0.578-0.156-0.875-0.219
			c-0.016,0-0.016,0-0.031-0.008c-0.672-0.133-1.328-0.203-2-0.211c-0.031,0-0.062,0-0.094,0c-0.297,0-0.609,0.008-0.922,0.039
			c-0.078,0.008-0.172,0.023-0.25,0.031c-0.25,0.023-0.5,0.055-0.75,0.102c-0.125,0.023-0.25,0.055-0.375,0.086
			c-0.219,0.039-0.422,0.086-0.625,0.148c-0.141,0.039-0.281,0.086-0.422,0.133c-0.188,0.062-0.375,0.125-0.562,0.203
			c-0.141,0.047-0.281,0.109-0.406,0.172c-0.188,0.086-0.391,0.164-0.562,0.258c-0.047,0.031-0.094,0.047-0.141,0.07
			C250.51,246.947,201.886,272.305,155.231,266.79z M328.397,317.994c-12.249,13.951-25.983,25.639-39.702,33.779
			c-12.234,7.266-23.859,11.266-32.702,11.266c-8.844,0-20.468-4-32.702-11.266c-13.719-8.141-27.452-19.828-39.702-33.779
			c-8.125-9.266-15.234-19.094-21.234-29.234c2.249,0.108,4.484,0.171,6.718,0.171c38.952,0,74.701-15.125,87.248-21.078
			c13.515,5.562,53.452,20.516,93.231,21.047C343.553,298.994,336.49,308.775,328.397,317.994z M330.882,346.148l-17.624,31.156
			c-1.453,1.312-5.781,4.938-13.234,8.5c-15.578,7.469-32.578,9.031-44.093,9.031c-20.858,0-35.499-4.906-44.108-9.031
			c-7.469-3.578-11.812-7.188-13.266-8.5l-17.921-31.594c25.03,23.875,53.155,38.672,75.357,38.672
			C278.07,384.382,305.976,369.757,330.882,346.148z M32.701,490.645v-27.453c0-15.922,10.156-30.016,25.344-35.172l1.188-0.344
			c19.968-5.375,30.968-10.656,39.827-14.906c3.422-1.625,6.391-3.047,9.266-4.141c5.703-2.17,11.905-4.639,18.202-7.42
			l21.969,16.873l-4.188,17.266c-1.078,4.484,0.844,9.172,4.781,11.609l70.982,43.688H32.701z M166.886,432.834l3.984-16.469
			c1-4.095-0.516-8.407-3.859-10.968l-22.874-17.562l22.968-22.734l59.124,104.264L166.886,432.834z M255.977,478.567
			l-38.421-67.766c10.344,3.125,23.077,5.375,38.374,5.375c15.296,0.001,28.046-2.249,38.39-5.39L255.977,478.567z M344.678,365.116
			l22.952,22.719l-22.858,17.562c-3.359,2.561-4.875,6.873-3.875,10.967l3.999,16.484l-59.186,36.5L344.678,365.116z
			 M479.285,490.645H291.851l70.842-43.703c3.938-2.422,5.859-7.109,4.766-11.594l-4.188-17.266l22.047-16.936
			c6.344,2.812,12.609,5.297,18.359,7.482c2.859,1.094,5.827,2.516,9.249,4.141c8.859,4.25,19.874,9.531,39.827,14.906l1.188,0.344
			c15.172,5.156,25.344,19.25,25.344,35.172V490.645z"/>
	</g>
</g>
<g>
</g>
<g>
</g>
<g>
</g>
<g>
</g>
<g>
</g>
<g>
</g>
<g>
</g>
<g>
</g>
<g>
</g>
<g>
</g>
<g>
</g>
<g>
</g>
<g>
</g>
<g>
</g>
<g>
</g>
</svg>
