<?xml version="1.0" encoding="UTF-8" standalone="no"?>
<svg
   xmlns:dc="http://purl.org/dc/elements/1.1/"
   xmlns:cc="http://creativecommons.org/ns#"
   xmlns:rdf="http://www.w3.org/1999/02/22-rdf-syntax-ns#"
   xmlns:svg="http://www.w3.org/2000/svg"
   xmlns="http://www.w3.org/2000/svg"
   xmlns:sodipodi="http://sodipodi.sourceforge.net/DTD/sodipodi-0.dtd"
   xmlns:inkscape="http://www.inkscape.org/namespaces/inkscape"
   height="512pt"
   viewBox="-84 0 512 512"
   width="512pt"
   version="1.1"
   id="svg1725"
   sodipodi:docname="resistance_token.svg"
   inkscape:version="0.92.2 (5c3e80d, 2017-08-06)">
  <metadata
     id="metadata1731">
    <rdf:RDF>
      <cc:Work
         rdf:about="">
        <dc:format>image/svg+xml</dc:format>
        <dc:type
           rdf:resource="http://purl.org/dc/dcmitype/StillImage" />
        <dc:title />
      </cc:Work>
    </rdf:RDF>
  </metadata>
  <defs
     id="defs1729" />
  <sodipodi:namedview
     pagecolor="#ffffff"
     bordercolor="#666666"
     borderopacity="1"
     objecttolerance="10"
     gridtolerance="10"
     guidetolerance="10"
     inkscape:pageopacity="0"
     inkscape:pageshadow="2"
     inkscape:window-width="1920"
     inkscape:window-height="1017"
     id="namedview1727"
     showgrid="false"
     inkscape:zoom="0.34570313"
     inkscape:cx="-151.86441"
     inkscape:cy="341.33333"
     inkscape:window-x="1912"
     inkscape:window-y="-8"
     inkscape:window-maximized="1"
     inkscape:current-layer="layer2" />
  <g
     inkscape:groupmode="layer"
     id="layer1"
     inkscape:label="bg"
     sodipodi:insensitive="true">
    <circle
       style="opacity:1;vector-effect:none;fill:#ffbb00;fill-opacity:1;stroke:#010101;stroke-width:14.17322826;stroke-linecap:butt;stroke-linejoin:miter;stroke-miterlimit:4;stroke-dasharray:none;stroke-dashoffset:0;stroke-opacity:0.99972558;paint-order:normal"
       id="path6018"
       cx="174.16948"
       cy="258.16949"
       r="258.16949" />
  </g>
  <g
     inkscape:groupmode="layer"
     id="layer2"
     inkscape:label="resistance icon"
     style="display:inline">
    <path
       id="path1723"
       style="stroke-width:0.75"
       d="m 267.46779,219.02148 -15.57716,-15.57714 7.95704,-7.9541 15.57421,15.57714 z m -20.8799,-20.87988 -7.95409,-7.9541 7.95409,-7.95409 7.9541,7.95409 z m -13.25683,-13.25976 -7.9541,-7.95411 7.9541,-7.95409 7.9541,7.95409 z m 0,0 m 16.70508,192.04102 -11.31153,-40.74317 10.83984,-3.00879 11.31153,40.74317 z m -13.31835,-47.97071 -3.00879,-10.83983 10.83983,-3.00879 3.00879,10.83983 z m -5.01564,-18.06445 -3.00878,-10.83984 10.83984,-3.00879 3.00879,10.83985 z m 0,0 m -51.16992,-176.77149 -7.95703,-7.9541 7.13086,-7.13086 V 102.00684 C 179.70606,97.591797 176.11426,94 171.69922,94 V 82.75 c 10.62012,0 19.25684,8.639648 19.25684,19.25684 v 21.68554 z m 0,0 m 13.16601,53.75977 c 0,-12.13184 -9.86718,-21.99902 -21.99902,-21.99902 -12.12891,0 -21.99902,9.86718 -21.99902,21.99902 0,12.12891 9.87011,21.99903 21.99902,21.99903 12.13184,0 21.99902,-9.87012 21.99902,-21.99903 z m -32.74804,0 c 0,-5.92675 4.82227,-10.74902 10.74902,-10.74902 5.92676,0 10.74902,4.82227 10.74902,10.74902 0,5.92675 -4.82226,10.74903 -10.74902,10.74903 -5.92675,0 -10.74902,-4.82228 -10.74902,-10.74903 z m 0,0 m -10.28614,216.78516 -2.25,11.02149 c 7.72559,1.57617 15.50684,2.36425 23.28516,2.36425 7.78125,0 15.55957,-0.78808 23.28515,-2.36425 l -2.24706,-11.02149 c -13.95996,2.84766 -28.11621,2.84766 -42.07325,0 z m 0,0 M 89.788086,277.65625 57.77832,392.94532 l 29.768555,7.51465 2.753906,-10.91015 -18.600586,-4.69337 28.927735,-104.19141 z m 0,0 m 152.982424,3.00879 28.92773,104.19141 -18.59764,4.69337 2.75096,10.90722 29.76856,-7.51172 -32.00976,-115.28907 z m 0,0 m -98.29102,-5.1123 h 54.43946 v 11.25 h -54.43946 z m 0,0 m 32.84473,-44.73047 h -11.25 v 24.16992 h -21.59473 v 11.25 h 54.43946 v -11.25 h -21.59473 z m 0,0 m 42.21973,69.96387 v -23.71582 l 8.73926,8.73926 c 6.60645,-6.60645 69.92579,-69.92286 72.19043,-72.19336 l -63.56836,-63.56837 h -38.33203 v -7.45605 l 11.13281,-11.13281 v -29.45215 c 0,-20.956059 -17.04786,-38.006841 -38.00684,-38.006841 -20.95606,0 -38.00683,17.050782 -38.00683,38.006841 v 29.45215 l 11.13281,11.13281 v 7.45605 h -38.32911 l -63.571286,63.57129 72.190436,72.19044 8.73925,-8.73926 v 23.71289 c -2.04785,7.64355 -37.371092,139.57911 -39.416014,147.2168 h 33.562504 l 14.82714,-11.40527 15.49806,-58.39746 18.85254,-71.04493 h 9.04101 l 18.85547,71.04493 15.5039,58.42382 14.792,11.37891 h 33.58887 c -2.04492,-7.64063 -37.36816,-139.57325 -39.41602,-147.21387 z m 0,-68.16212 v -38.01269 l 19.00781,19.00489 c -6.97558,6.97558 -11.81542,11.81542 -19.00781,19.0078 z m 26.13282,19.8838 -17.39356,17.39062 -8.73634,-8.73633 v -12.62695 l 11.07716,-11.08008 c 5.5752,5.57228 9.48046,9.47754 15.05274,15.05274 z M 144.94239,102.00684 c 0,-14.753911 12.00292,-26.756841 26.75683,-26.756841 14.75391,0 26.75684,12.00293 26.75684,26.756841 v 24.79101 L 181.417,143.83692 h -19.43555 l -17.03906,-17.03907 z m -29.82715,167.8916 -17.39356,-17.39062 15.05273,-15.05274 11.08008,11.08008 v 12.62695 z m -10.26563,-56.2793 19.00488,-19.00488 v 38.00976 c -6.34863,-6.34863 -12.65039,-12.65038 -19.00488,-19.00488 z m 18.08496,216.39259 -8.75977,6.73828 H 99.098634 l 12.665036,-47.30273 h 21.93751 z m 61.93947,-134.10937 h -26.34963 l -21.83789,82.29492 h -21.91113 l 20.3291,-75.93458 c 0,-0.70898 0,-88.85449 0,-88.85449 l 11.14746,11.14746 h 17.31446 v -11.25 h -12.65625 l -15.80567,-15.80566 v -15.50099 l -10.28613,-4.25976 -35.879884,35.87988 15.881834,15.87891 c -5.575189,5.5752 -9.480466,9.48048 -15.052732,15.05274 L 58.833007,213.61622 111.1543,161.29785 h 44.9209 v -7.45605 l 1.24511,1.24512 h 28.75489 l 1.24805,-1.24512 v 7.45605 h 44.92089 l 52.32129,52.31837 -30.93456,30.93457 c -5.5752,-5.5752 -9.47755,-9.47754 -15.05274,-15.05274 l 15.88184,-15.87891 -35.87695,-35.87988 -10.28907,4.2627 v 15.49805 l -15.80567,15.80566 h -12.65625 v 11.25 h 17.31446 l 11.14746,-11.14746 v 88.85742 l 20.32911,75.93165 h -21.91115 z m 44.32323,140.84765 -8.72461,-6.71192 -10.77246,-40.59081 h 21.9375 l 12.66504,47.30273 z m 0,0"
       inkscape:connector-curvature="0" />
  </g>
</svg>
