<?xml version="1.0" encoding="iso-8859-1"?>
<!-- Generator: Adobe Illustrator 21.0.0, SVG Export Plug-In . SVG Version: 6.00 Build 0)  -->
<svg xmlns="http://www.w3.org/2000/svg" xmlns:xlink="http://www.w3.org/1999/xlink" version="1.1" id="Capa_1" x="0px" y="0px" viewBox="0 0 512 512" style="enable-background:new 0 0 512 512;" xml:space="preserve" width="512" height="512">
<g>
	<path d="M195,332h-15v-15.308c18.691-14.092,30-36.24,30-59.692v-26.792c0-38.203-26.88-71.382-62.52-77.197   c-21.987-3.501-44.253,2.563-61.055,16.846C69.639,184.139,60,204.969,60,227v30c0,23.452,11.309,45.601,30,59.692V332H75   c-41.353,0-75,33.647-75,75v90c0,8.291,6.709,15,15,15h240c8.291,0,15-6.709,15-15v-90C270,365.647,236.353,332,195,332z"/>
	<path d="M377,0c-74.443,0-135,60.557-135,135c0,28.066,8.774,55.4,24.902,78.12l-22.383,33.56   c-3.062,4.6-3.354,10.518-0.747,15.396S251.463,270,257,270h120c74.443,0,135-60.557,135-135S451.443,0,377,0z M377,225   c-8.284,0-15-6.716-15-15s6.716-15,15-15s15,6.716,15,15S385.284,225,377,225z M397.933,144.844   c-3.545,1.875-5.933,6.68-5.933,11.968V165c0,8.291-6.709,15-15,15s-15-6.709-15-15v-8.188c0-16.641,8.423-31.392,21.958-38.511   C388.924,115.693,392,110.596,392,105c0-8.276-6.724-15-15-15s-15,6.724-15,15c0,8.291-6.709,15-15,15s-15-6.709-15-15   c0-24.814,20.186-45,45-45s45,20.186,45,45C422,121.772,412.771,137.036,397.933,144.844z"/>
</g>















</svg>
