<?xml version="1.0" encoding="iso-8859-1"?>
<!-- Generator: Adobe Illustrator 17.1.0, SVG Export Plug-In . SVG Version: 6.00 Build 0)  -->
<!DOCTYPE svg PUBLIC "-//W3C//DTD SVG 1.1//EN" "http://www.w3.org/Graphics/SVG/1.1/DTD/svg11.dtd">
<svg version="1.1" id="Capa_1" xmlns="http://www.w3.org/2000/svg" xmlns:xlink="http://www.w3.org/1999/xlink" x="0px" y="0px"
	 viewBox="0 0 216.318 216.318" style="enable-background:new 0 0 216.318 216.318;" xml:space="preserve">
<path d="M34.275,90.598c-0.013,0.135-0.036,0.268-0.053,0.402c-0.031,0.243-0.065,0.485-0.111,0.723
	c-0.031,0.164-0.071,0.327-0.109,0.489c-0.048,0.204-0.099,0.408-0.157,0.608c-0.049,0.167-0.102,0.333-0.158,0.498
	c-0.066,0.196-0.137,0.39-0.213,0.582c-0.061,0.154-0.123,0.307-0.191,0.458c-0.092,0.207-0.191,0.409-0.294,0.61
	c-0.065,0.127-0.128,0.254-0.197,0.378c-0.131,0.234-0.272,0.462-0.417,0.686c-0.055,0.084-0.105,0.171-0.162,0.254
	c-0.194,0.284-0.401,0.559-0.618,0.825c-0.017,0.021-0.033,0.044-0.051,0.066c-2.233,2.7-5.608,4.423-9.377,4.423
	C15.458,101.6,10,96.142,10,89.434c0-4.068,2.014-7.667,5.09-9.877c0.017-0.012,0.036-0.02,0.053-0.032
	c1.922-1.365,4.193-2.132,6.57-2.219c0.108-0.004,0.213-0.021,0.319-0.031c0.045,0,0.089-0.007,0.134-0.007
	c6.111,0,11.17,4.534,12.026,10.411c0.003,0.027,0.003,0.054,0.007,0.081c0.041,0.302,0.07,0.569,0.092,0.823
	c0.019,0.266,0.04,0.531,0.041,0.801c0,0.017,0.002,0.038,0.002,0.055C34.334,89.829,34.312,90.216,34.275,90.598z M98.185,119.867
	c-5.62,0-10.192-4.572-10.192-10.192s4.572-10.192,10.192-10.192s10.192,4.572,10.192,10.192S103.805,119.867,98.185,119.867z
	 M150.565,102.563c0.195-0.29,0.646-0.777,1.462-0.777h15.849c2.333,1.839,7.43,6.113,10.76,10.784
	c2.06,2.89,3.864,6.565,5.211,9.688h-17.208c-5.452,0-10.292-3.268-12.329-8.325l-3.919-9.723
	C150.086,103.453,150.369,102.853,150.565,102.563z M176.383,159.795l1.784,8.266h-46.881l1.789-8.286
	c0.343,0.005,0.684,0.021,1.028,0.021H176.383z M128.603,99.482c5.62,0,10.192,4.572,10.192,10.192s-4.572,10.192-10.192,10.192
	s-10.192-4.572-10.192-10.192S122.982,99.482,128.603,99.482z M211.318,38.258h-93.56h-9.75h-93.56c-2.762,0-5,2.239-5,5
	s2.238,5,5,5h88.56v18.091H79.083c-5.936,0-10.765,4.829-10.765,10.765v4.2c0,0.258,0.021,0.511,0.039,0.765H43.074
	c-2.749-7.791-9.739-13.585-18.181-14.627L20.197,56.46c-0.786-1.841-2.596-3.036-4.598-3.036H7.342
	c-1.571,0-3.051,0.738-3.995,1.994s-1.244,2.881-0.81,4.391l4.01,13.913C2.506,77.74,0,83.299,0,89.434
	C0,101.656,9.944,111.6,22.167,111.6c5.668,0,10.844-2.141,14.768-5.654l32.001,6.769c8.051,24.337,29.177,42.066,54.1,46.171
	l-1.831,8.482c-0.05,0.232-0.061,0.461-0.078,0.691h-10.951c-2.762,0-5,2.239-5,5s2.238,5,5,5h87.833c2.762,0,5-2.239,5-5
	s-2.238-5-5-5h-9.682c-0.017-0.23-0.028-0.46-0.078-0.691l-1.854-8.585c6.768-2.395,11.637-8.841,11.637-16.419v-0.769
	c0-5.281-0.7-10.4-1.997-15.279c-0.039-0.204-0.089-0.406-0.154-0.606c-0.014-0.042-0.056-0.173-0.125-0.377
	c-1.754-6.164-4.464-11.929-7.983-17.107c-0.324-0.499-0.656-0.988-0.994-1.463c-0.724-1.016-1.508-2.005-2.32-2.962
	c-3.196-3.878-6.88-7.337-10.945-10.304c-0.581-0.448-0.946-0.714-1.015-0.764c-0.131-0.095-0.273-0.17-0.412-0.252
	c-8.781-6.021-19.245-9.758-30.534-10.328c0.021-0.279,0.042-0.558,0.042-0.842v-4.2c0-5.936-4.829-10.765-10.765-10.765h-8.072
	V48.258h88.56c2.762,0,5-2.239,5-5S214.08,38.258,211.318,38.258z M22.167,96.075c-3.662,0-6.642-2.979-6.642-6.641
	s2.979-6.641,6.642-6.641s6.642,2.979,6.642,6.641S25.829,96.075,22.167,96.075z"/>
<g>
</g>
<g>
</g>
<g>
</g>
<g>
</g>
<g>
</g>
<g>
</g>
<g>
</g>
<g>
</g>
<g>
</g>
<g>
</g>
<g>
</g>
<g>
</g>
<g>
</g>
<g>
</g>
<g>
</g>
</svg>
