<?xml version="1.0" encoding="iso-8859-1"?>
<!-- Generator: Adobe Illustrator 21.0.0, SVG Export Plug-In . SVG Version: 6.00 Build 0)  -->
<svg xmlns="http://www.w3.org/2000/svg" xmlns:xlink="http://www.w3.org/1999/xlink" version="1.1" id="Capa_1" x="0px" y="0px" viewBox="0 0 512 512" style="enable-background:new 0 0 512 512;" xml:space="preserve" width="512" height="512">
<g>
	<path d="M316,60c0-33.084-26.916-60-60-60s-60,26.916-60,60s26.916,60,60,60S316,93.084,316,60z M256,90c-16.542,0-30-13.458-30-30   s13.458-30,30-30s30,13.458,30,30S272.542,90,256,90z"/>
	<path d="M422.148,189.935l-65.538-65.539c-2.709-2.708-6.516-4.396-10.614-4.396c-11.153,0-169.591,0-179.99,0   c-4.026,0-7.891,1.674-10.614,4.396l-65.538,65.539c-19.367,19.367-17.065,51.406,4.82,67.82l17.298,12.973L91.177,404.7   c-0.671,4.328,0.582,8.733,3.432,12.06C97.459,420.085,101.62,422,106,422h75l0,45c0,24.813,20.187,45,45,45   c11.517,0,22.032-4.354,30-11.495c7.968,7.142,18.483,11.495,30,11.495c24.813,0,45-20.187,45-45v-45h75   c4.38,0,8.541-1.915,11.391-5.241c2.85-3.326,4.103-7.731,3.432-12.06L400.03,270.728l17.298-12.973   C439.239,241.32,441.491,209.278,422.148,189.935z M279.787,150L256,173.787L232.213,150H279.787z M123.508,392l15.656-100.877   L181,322.5l0,69.5H123.508z M211,330h30v92h-30C211,407.85,211,341.468,211,330z M271,330h30v92h-30V330z M301,300h-90l0-30h90V300   z M226,482c-8.271,0-15-6.729-15-15v-15h30v15C241,475.271,234.271,482,226,482z M286,482c-8.271,0-15-6.729-15-15v-15h30v15   C301,475.271,294.271,482,286,482z M388.492,392H331v-69.5l41.836-31.377L388.492,392z M399.328,233.754   C391.047,239.965,339,279,331,285v-37.503l22.651-16.986c6.628-4.97,7.972-14.372,3.001-21c-4.97-6.627-14.372-7.973-21-3.001   L331,210v-15c0-8.284-6.716-15-15-15s-15,6.716-15,15v45h-90l0-45c0-8.284-6.716-15-15-15s-14.99,6.716-14.99,15v15l-4.653-3.489   c-6.629-4.97-16.039-3.626-21.01,3.001s-3.626,16.029,3.001,21l22.661,16.986c0,13.758,0,24.717,0,37.503   c-8.202-6.151-53.75-40.305-68.337-51.246c-7.277-5.458-8.105-16.108-1.607-22.607L172.213,150h17.574l55.606,55.606   C248.322,208.536,252.161,210,256,210c3.839,0,7.678-1.464,10.606-4.394L322.213,150h17.574l61.147,61.147   C407.381,217.595,406.666,228.251,399.328,233.754z"/>
</g>















</svg>
